<svg width="100" height="50" viewBox="0 0 185 104" fill="none" xmlns="http://www.w3.org/2000/svg">
<g filter="url(#filter0_d_2_15)">
<mask id="mask0_2_15" style="mask-type:luminance" maskUnits="userSpaceOnUse" x="40" y="39" width="105" height="57">
<path d="M145 39H40V95.975H145V39Z" fill="white"/>
</mask>
<g mask="url(#mask0_2_15)">
<path d="M144.724 42.8161C125.373 30.0877 114.613 52.8001 92.2254 58.5654C104.831 61.8116 121.127 59.682 144.724 42.8161Z" fill="#67C973"/>
<path d="M40 58.4565C70.0566 38.6826 79.3885 104.421 143.752 59.3398C144.125 59.0788 144.44 58.6681 144.661 58.1552C144.882 57.6423 145 57.0481 145 56.4413V47.454C86.542 89.2338 72.8874 40.5722 49.1165 43.7904C46.625 44.1267 44.3089 45.8171 42.6224 48.5303C40.9358 51.2434 40.0006 54.7835 40 58.4565Z" fill="#458985"/>
<path d="M40.2764 78.9448C59.6234 66.2164 70.3852 88.9288 92.7725 94.6952C80.1635 97.9398 63.8711 95.8106 40.2764 78.9448Z" fill="#EF980C"/>
</g>
</g>
<path d="M40 65.1172V73.9915C69.1195 54.8372 78.7853 115.941 137.891 78.7738C139.999 77.4534 141.795 75.2539 143.059 72.4483C144.323 69.6426 144.998 66.3542 145 62.9907C80.5136 109.08 70.5473 45.1107 41.3796 62.1338C40.9727 62.3714 40.6237 62.7828 40.3778 63.3146C40.1319 63.8465 40.0003 64.4744 40 65.1172Z" fill="#458985"/>
<g filter="url(#filter1_i_2_15)">
<path d="M11.8097 7.72727H17.3551V23.8182C17.3475 25.3258 16.9877 26.6439 16.2756 27.7727C15.5634 28.8939 14.5786 29.7652 13.321 30.3864C12.071 31.0076 10.6241 31.3182 8.98011 31.3182C7.52557 31.3182 6.2036 31.0644 5.0142 30.5568C3.83239 30.0492 2.8892 29.2614 2.18466 28.1932C1.48769 27.125 1.14299 25.7576 1.15057 24.0909H6.75284C6.77557 24.6894 6.8892 25.2008 7.09375 25.625C7.30587 26.0417 7.59754 26.3561 7.96875 26.5682C8.33996 26.7803 8.78314 26.8864 9.2983 26.8864C9.83617 26.8864 10.2907 26.7727 10.6619 26.5455C11.0331 26.3106 11.3134 25.9659 11.5028 25.5114C11.6998 25.0568 11.8021 24.4924 11.8097 23.8182V7.72727ZM42.8523 19.3636C42.8523 21.9242 42.3598 24.0947 41.375 25.875C40.3902 27.6553 39.0568 29.0076 37.375 29.9318C35.7008 30.8561 33.822 31.3182 31.7386 31.3182C29.6477 31.3182 27.7652 30.8523 26.0909 29.9205C24.4167 28.9886 23.0871 27.6364 22.1023 25.8636C21.125 24.0833 20.6364 21.9167 20.6364 19.3636C20.6364 16.803 21.125 14.6326 22.1023 12.8523C23.0871 11.072 24.4167 9.7197 26.0909 8.79545C27.7652 7.87121 29.6477 7.40909 31.7386 7.40909C33.822 7.40909 35.7008 7.87121 37.375 8.79545C39.0568 9.7197 40.3902 11.072 41.375 12.8523C42.3598 14.6326 42.8523 16.803 42.8523 19.3636ZM37.1023 19.3636C37.1023 17.8485 36.8864 16.5682 36.4545 15.5227C36.0303 14.4773 35.4167 13.6856 34.6136 13.1477C33.8182 12.6098 32.8598 12.3409 31.7386 12.3409C30.625 12.3409 29.6667 12.6098 28.8636 13.1477C28.0606 13.6856 27.4432 14.4773 27.0114 15.5227C26.5871 16.5682 26.375 17.8485 26.375 19.3636C26.375 20.8788 26.5871 22.1591 27.0114 23.2045C27.4432 24.25 28.0606 25.0417 28.8636 25.5795C29.6667 26.1174 30.625 26.3864 31.7386 26.3864C32.8598 26.3864 33.8182 26.1174 34.6136 25.5795C35.4167 25.0417 36.0303 24.25 36.4545 23.2045C36.8864 22.1591 37.1023 20.8788 37.1023 19.3636ZM46.1364 31V7.72727H55.8409C57.5833 7.72727 59.0417 7.97348 60.2159 8.46591C61.3977 8.95833 62.2841 9.64773 62.875 10.5341C63.4735 11.4205 63.7727 12.447 63.7727 13.6136C63.7727 14.5 63.5871 15.2917 63.2159 15.9886C62.8447 16.678 62.3333 17.25 61.6818 17.7045C61.0303 18.1591 60.2765 18.4773 59.4205 18.6591V18.8864C60.3598 18.9318 61.2273 19.1856 62.0227 19.6477C62.8258 20.1098 63.4697 20.7538 63.9545 21.5795C64.4394 22.3977 64.6818 23.3674 64.6818 24.4886C64.6818 25.7386 64.3636 26.8561 63.7273 27.8409C63.0909 28.8182 62.1705 29.5909 60.9659 30.1591C59.7614 30.7197 58.2992 31 56.5795 31H46.1364ZM51.7614 26.4659H55.2386C56.4583 26.4659 57.3561 26.2348 57.9318 25.7727C58.5152 25.3106 58.8068 24.6667 58.8068 23.8409C58.8068 23.2424 58.6667 22.7273 58.3864 22.2955C58.1061 21.8561 57.7083 21.5189 57.1932 21.2841C56.678 21.0417 56.0606 20.9205 55.3409 20.9205H51.7614V26.4659ZM51.7614 17.2955H54.875C55.4886 17.2955 56.0341 17.1932 56.5114 16.9886C56.9886 16.7841 57.3598 16.4886 57.625 16.1023C57.8977 15.7159 58.0341 15.25 58.0341 14.7045C58.0341 13.9242 57.7576 13.3106 57.2045 12.8636C56.6515 12.4167 55.9053 12.1932 54.9659 12.1932H51.7614V17.2955ZM88.5114 16.1591H82.8295C82.7538 15.5758 82.5985 15.0492 82.3636 14.5795C82.1288 14.1098 81.8182 13.7083 81.4318 13.375C81.0455 13.0417 80.5871 12.7879 80.0568 12.6136C79.5341 12.4318 78.9545 12.3409 78.3182 12.3409C77.1894 12.3409 76.2159 12.6174 75.3977 13.1705C74.5871 13.7235 73.9621 14.5227 73.5227 15.5682C73.0909 16.6136 72.875 17.8788 72.875 19.3636C72.875 20.9091 73.0947 22.2045 73.5341 23.25C73.9811 24.2879 74.6061 25.072 75.4091 25.6023C76.2197 26.125 77.178 26.3864 78.2841 26.3864C78.9053 26.3864 79.4697 26.3068 79.9773 26.1477C80.4924 25.9886 80.9432 25.7576 81.3295 25.4545C81.7235 25.1439 82.0455 24.7689 82.2955 24.3295C82.553 23.8826 82.7311 23.3788 82.8295 22.8182L88.5114 22.8523C88.4129 23.8826 88.1136 24.8977 87.6136 25.8977C87.1212 26.8977 86.4432 27.8106 85.5795 28.6364C84.7159 29.4545 83.6629 30.1061 82.4205 30.5909C81.1856 31.0758 79.7689 31.3182 78.1705 31.3182C76.0644 31.3182 74.178 30.8561 72.5114 29.9318C70.8523 29 69.5417 27.6439 68.5795 25.8636C67.6174 24.0833 67.1364 21.9167 67.1364 19.3636C67.1364 16.803 67.625 14.6326 68.6023 12.8523C69.5795 11.072 70.9015 9.7197 72.5682 8.79545C74.2348 7.87121 76.1023 7.40909 78.1705 7.40909C79.5795 7.40909 80.8826 7.60606 82.0795 8C83.2765 8.38636 84.3295 8.95454 85.2386 9.70454C86.1477 10.447 86.8864 11.3598 87.4545 12.4432C88.0227 13.5265 88.375 14.7652 88.5114 16.1591ZM91.7301 31V7.72727H101.344C103.086 7.72727 104.59 8.04167 105.855 8.67045C107.128 9.29167 108.109 10.1856 108.798 11.3523C109.488 12.5114 109.832 13.8864 109.832 15.4773C109.832 17.0909 109.48 18.4621 108.776 19.5909C108.071 20.7121 107.071 21.5682 105.776 22.1591C104.48 22.7424 102.946 23.0341 101.173 23.0341H95.0938V18.6023H100.128C100.976 18.6023 101.685 18.4924 102.253 18.2727C102.829 18.0455 103.264 17.7045 103.56 17.25C103.855 16.7879 104.003 16.197 104.003 15.4773C104.003 14.7576 103.855 14.1629 103.56 13.6932C103.264 13.2159 102.829 12.8598 102.253 12.625C101.677 12.3826 100.969 12.2614 100.128 12.2614H97.3551V31H91.7301ZM104.832 20.3636L110.628 31H104.491L98.8097 20.3636H104.832ZM126.997 7.72727H132.611V22.7386C132.611 24.4735 132.198 25.9848 131.372 27.2727C130.546 28.553 129.395 29.5455 127.918 30.25C126.44 30.947 124.724 31.2955 122.77 31.2955C120.793 31.2955 119.065 30.947 117.588 30.25C116.111 29.5455 114.963 28.553 114.145 27.2727C113.327 25.9848 112.918 24.4735 112.918 22.7386V7.72727H118.543V22.25C118.543 23.053 118.717 23.7689 119.065 24.3977C119.421 25.0265 119.918 25.5189 120.554 25.875C121.19 26.2311 121.929 26.4091 122.77 26.4091C123.611 26.4091 124.346 26.2311 124.974 25.875C125.611 25.5189 126.107 25.0265 126.463 24.3977C126.819 23.7689 126.997 23.053 126.997 22.25V7.72727ZM141.761 7.72727V31H136.136V7.72727H141.761ZM157.872 14.7045C157.796 13.8712 157.459 13.2235 156.861 12.7614C156.27 12.2917 155.425 12.0568 154.327 12.0568C153.599 12.0568 152.993 12.1515 152.509 12.3409C152.024 12.5303 151.66 12.7917 151.418 13.125C151.175 13.4508 151.05 13.8258 151.043 14.25C151.027 14.5985 151.096 14.9053 151.247 15.1705C151.406 15.4356 151.634 15.6705 151.929 15.875C152.232 16.072 152.596 16.2462 153.02 16.3977C153.444 16.5492 153.921 16.6818 154.452 16.7955L156.452 17.25C157.603 17.5 158.618 17.8333 159.497 18.25C160.384 18.6667 161.126 19.1629 161.724 19.7386C162.33 20.3144 162.789 20.9773 163.099 21.7273C163.41 22.4773 163.569 23.3182 163.577 24.25C163.569 25.7197 163.198 26.9811 162.463 28.0341C161.728 29.0871 160.671 29.8939 159.293 30.4545C157.921 31.0152 156.266 31.2955 154.327 31.2955C152.38 31.2955 150.683 31.0038 149.236 30.4205C147.789 29.8371 146.664 28.9508 145.861 27.7614C145.058 26.572 144.645 25.0682 144.622 23.25H150.009C150.054 24 150.255 24.625 150.611 25.125C150.967 25.625 151.455 26.0038 152.077 26.2614C152.705 26.5189 153.433 26.6477 154.259 26.6477C155.016 26.6477 155.66 26.5455 156.19 26.3409C156.728 26.1364 157.141 25.8523 157.429 25.4886C157.717 25.125 157.865 24.7083 157.872 24.2386C157.865 23.7992 157.728 23.4242 157.463 23.1136C157.198 22.7955 156.789 22.5227 156.236 22.2955C155.69 22.0606 154.993 21.8447 154.145 21.6477L151.713 21.0795C149.698 20.6174 148.111 19.8712 146.952 18.8409C145.793 17.803 145.217 16.4015 145.224 14.6364C145.217 13.197 145.603 11.9356 146.384 10.8523C147.164 9.76894 148.243 8.92424 149.622 8.31818C151.001 7.71212 152.573 7.40909 154.338 7.40909C156.141 7.40909 157.705 7.71591 159.031 8.32954C160.365 8.93561 161.399 9.78788 162.134 10.8864C162.868 11.9848 163.243 13.2576 163.259 14.7045H157.872ZM166.418 31V7.72727H182.645V12.2955H172.043V17.0682H181.815V21.6477H172.043V26.4318H182.645V31H166.418Z" fill="#57D9EB"/>
</g>
<defs>
<filter id="filter0_d_2_15" x="36" y="39.0001" width="113" height="64.9747" filterUnits="userSpaceOnUse" color-interpolation-filters="sRGB">
<feFlood flood-opacity="0" result="BackgroundImageFix"/>
<feColorMatrix in="SourceAlpha" type="matrix" values="0 0 0 0 0 0 0 0 0 0 0 0 0 0 0 0 0 0 127 0" result="hardAlpha"/>
<feOffset dy="4"/>
<feGaussianBlur stdDeviation="2"/>
<feComposite in2="hardAlpha" operator="out"/>
<feColorMatrix type="matrix" values="0 0 0 0 0 0 0 0 0 0 0 0 0 0 0 0 0 0 0.25 0"/>
<feBlend mode="normal" in2="BackgroundImageFix" result="effect1_dropShadow_2_15"/>
<feBlend mode="normal" in="SourceGraphic" in2="effect1_dropShadow_2_15" result="shape"/>
</filter>
<filter id="filter1_i_2_15" x="1.1392" y="7.40909" width="181.506" height="27.9091" filterUnits="userSpaceOnUse" color-interpolation-filters="sRGB">
<feFlood flood-opacity="0" result="BackgroundImageFix"/>
<feBlend mode="normal" in="SourceGraphic" in2="BackgroundImageFix" result="shape"/>
<feColorMatrix in="SourceAlpha" type="matrix" values="0 0 0 0 0 0 0 0 0 0 0 0 0 0 0 0 0 0 127 0" result="hardAlpha"/>
<feOffset dy="4"/>
<feGaussianBlur stdDeviation="2"/>
<feComposite in2="hardAlpha" operator="arithmetic" k2="-1" k3="1"/>
<feColorMatrix type="matrix" values="0 0 0 0 0 0 0 0 0 0 0 0 0 0 0 0 0 0 0.25 0"/>
<feBlend mode="normal" in2="shape" result="effect1_innerShadow_2_15"/>
</filter>
</defs>
</svg>
