<svg width="190" height="33" viewBox="0 0 190 33" fill="none" xmlns="http://www.w3.org/2000/svg">
<g filter="url(#filter0_d_1_12)">
<path d="M14.8097 0.727272H20.3551V16.8182C20.3475 18.3258 19.9877 19.6439 19.2756 20.7727C18.5634 21.8939 17.5786 22.7652 16.321 23.3864C15.071 24.0076 13.6241 24.3182 11.9801 24.3182C10.5256 24.3182 9.2036 24.0644 8.0142 23.5568C6.83239 23.0492 5.8892 22.2614 5.18466 21.1932C4.48769 20.125 4.14299 18.7576 4.15057 17.0909H9.75284C9.77557 17.6894 9.8892 18.2008 10.0938 18.625C10.3059 19.0417 10.5975 19.3561 10.9688 19.5682C11.34 19.7803 11.7831 19.8864 12.2983 19.8864C12.8362 19.8864 13.2907 19.7727 13.6619 19.5455C14.0331 19.3106 14.3134 18.9659 14.5028 18.5114C14.6998 18.0568 14.8021 17.4924 14.8097 16.8182V0.727272ZM45.8523 12.3636C45.8523 14.9242 45.3598 17.0947 44.375 18.875C43.3902 20.6553 42.0568 22.0076 40.375 22.9318C38.7008 23.8561 36.822 24.3182 34.7386 24.3182C32.6477 24.3182 30.7652 23.8523 29.0909 22.9205C27.4167 21.9886 26.0871 20.6364 25.1023 18.8636C24.125 17.0833 23.6364 14.9167 23.6364 12.3636C23.6364 9.80303 24.125 7.63258 25.1023 5.85227C26.0871 4.07197 27.4167 2.7197 29.0909 1.79545C30.7652 0.871211 32.6477 0.40909 34.7386 0.40909C36.822 0.40909 38.7008 0.871211 40.375 1.79545C42.0568 2.7197 43.3902 4.07197 44.375 5.85227C45.3598 7.63258 45.8523 9.80303 45.8523 12.3636ZM40.1023 12.3636C40.1023 10.8485 39.8864 9.56818 39.4545 8.52273C39.0303 7.47727 38.4167 6.6856 37.6136 6.14773C36.8182 5.60985 35.8598 5.34091 34.7386 5.34091C33.625 5.34091 32.6667 5.60985 31.8636 6.14773C31.0606 6.6856 30.4432 7.47727 30.0114 8.52273C29.5871 9.56818 29.375 10.8485 29.375 12.3636C29.375 13.8788 29.5871 15.1591 30.0114 16.2045C30.4432 17.25 31.0606 18.0417 31.8636 18.5795C32.6667 19.1174 33.625 19.3864 34.7386 19.3864C35.8598 19.3864 36.8182 19.1174 37.6136 18.5795C38.4167 18.0417 39.0303 17.25 39.4545 16.2045C39.8864 15.1591 40.1023 13.8788 40.1023 12.3636ZM49.1364 24V0.727272H58.8409C60.5833 0.727272 62.0417 0.973484 63.2159 1.46591C64.3977 1.95833 65.2841 2.64773 65.875 3.53409C66.4735 4.42045 66.7727 5.44697 66.7727 6.61364C66.7727 7.5 66.5871 8.29167 66.2159 8.98864C65.8447 9.67803 65.3333 10.25 64.6818 10.7045C64.0303 11.1591 63.2765 11.4773 62.4205 11.6591V11.8864C63.3598 11.9318 64.2273 12.1856 65.0227 12.6477C65.8258 13.1098 66.4697 13.7538 66.9545 14.5795C67.4394 15.3977 67.6818 16.3674 67.6818 17.4886C67.6818 18.7386 67.3636 19.8561 66.7273 20.8409C66.0909 21.8182 65.1705 22.5909 63.9659 23.1591C62.7614 23.7197 61.2992 24 59.5795 24H49.1364ZM54.7614 19.4659H58.2386C59.4583 19.4659 60.3561 19.2348 60.9318 18.7727C61.5152 18.3106 61.8068 17.6667 61.8068 16.8409C61.8068 16.2424 61.6667 15.7273 61.3864 15.2955C61.1061 14.8561 60.7083 14.5189 60.1932 14.2841C59.678 14.0417 59.0606 13.9205 58.3409 13.9205H54.7614V19.4659ZM54.7614 10.2955H57.875C58.4886 10.2955 59.0341 10.1932 59.5114 9.98864C59.9886 9.78409 60.3598 9.48864 60.625 9.10227C60.8977 8.71591 61.0341 8.25 61.0341 7.70454C61.0341 6.92424 60.7576 6.31061 60.2045 5.86364C59.6515 5.41667 58.9053 5.19318 57.9659 5.19318H54.7614V10.2955ZM91.5114 9.15909H85.8295C85.7538 8.57576 85.5985 8.04924 85.3636 7.57954C85.1288 7.10985 84.8182 6.70833 84.4318 6.375C84.0455 6.04167 83.5871 5.78788 83.0568 5.61364C82.5341 5.43182 81.9545 5.34091 81.3182 5.34091C80.1894 5.34091 79.2159 5.61742 78.3977 6.17045C77.5871 6.72348 76.9621 7.52273 76.5227 8.56818C76.0909 9.61364 75.875 10.8788 75.875 12.3636C75.875 13.9091 76.0947 15.2045 76.5341 16.25C76.9811 17.2879 77.6061 18.072 78.4091 18.6023C79.2197 19.125 80.178 19.3864 81.2841 19.3864C81.9053 19.3864 82.4697 19.3068 82.9773 19.1477C83.4924 18.9886 83.9432 18.7576 84.3295 18.4545C84.7235 18.1439 85.0455 17.7689 85.2955 17.3295C85.553 16.8826 85.7311 16.3788 85.8295 15.8182L91.5114 15.8523C91.4129 16.8826 91.1136 17.8977 90.6136 18.8977C90.1212 19.8977 89.4432 20.8106 88.5795 21.6364C87.7159 22.4545 86.6629 23.1061 85.4205 23.5909C84.1856 24.0758 82.7689 24.3182 81.1705 24.3182C79.0644 24.3182 77.178 23.8561 75.5114 22.9318C73.8523 22 72.5417 20.6439 71.5795 18.8636C70.6174 17.0833 70.1364 14.9167 70.1364 12.3636C70.1364 9.80303 70.625 7.63258 71.6023 5.85227C72.5795 4.07197 73.9015 2.7197 75.5682 1.79545C77.2348 0.871211 79.1023 0.40909 81.1705 0.40909C82.5795 0.40909 83.8826 0.60606 85.0795 1C86.2765 1.38636 87.3295 1.95454 88.2386 2.70454C89.1477 3.44697 89.8864 4.35985 90.4545 5.44318C91.0227 6.52652 91.375 7.76515 91.5114 9.15909ZM94.7301 24V0.727272H104.344C106.086 0.727272 107.59 1.04167 108.855 1.67045C110.128 2.29167 111.109 3.18561 111.798 4.35227C112.488 5.51136 112.832 6.88636 112.832 8.47727C112.832 10.0909 112.48 11.4621 111.776 12.5909C111.071 13.7121 110.071 14.5682 108.776 15.1591C107.48 15.7424 105.946 16.0341 104.173 16.0341H98.0938V11.6023H103.128C103.976 11.6023 104.685 11.4924 105.253 11.2727C105.829 11.0455 106.264 10.7045 106.56 10.25C106.855 9.78788 107.003 9.19697 107.003 8.47727C107.003 7.75757 106.855 7.16288 106.56 6.69318C106.264 6.21591 105.829 5.85985 105.253 5.625C104.677 5.38258 103.969 5.26136 103.128 5.26136H100.355V24H94.7301ZM107.832 13.3636L113.628 24H107.491L101.81 13.3636H107.832ZM129.997 0.727272H135.611V15.7386C135.611 17.4735 135.198 18.9848 134.372 20.2727C133.546 21.553 132.395 22.5455 130.918 23.25C129.44 23.947 127.724 24.2955 125.77 24.2955C123.793 24.2955 122.065 23.947 120.588 23.25C119.111 22.5455 117.963 21.553 117.145 20.2727C116.327 18.9848 115.918 17.4735 115.918 15.7386V0.727272H121.543V15.25C121.543 16.053 121.717 16.7689 122.065 17.3977C122.421 18.0265 122.918 18.5189 123.554 18.875C124.19 19.2311 124.929 19.4091 125.77 19.4091C126.611 19.4091 127.346 19.2311 127.974 18.875C128.611 18.5189 129.107 18.0265 129.463 17.3977C129.819 16.7689 129.997 16.053 129.997 15.25V0.727272ZM144.761 0.727272V24H139.136V0.727272H144.761ZM160.872 7.70454C160.796 6.87121 160.459 6.22348 159.861 5.76136C159.27 5.29167 158.425 5.05682 157.327 5.05682C156.599 5.05682 155.993 5.15151 155.509 5.34091C155.024 5.5303 154.66 5.79167 154.418 6.125C154.175 6.45076 154.05 6.82576 154.043 7.25C154.027 7.59848 154.096 7.9053 154.247 8.17045C154.406 8.43561 154.634 8.67045 154.929 8.875C155.232 9.07197 155.596 9.24621 156.02 9.39773C156.444 9.54924 156.921 9.68182 157.452 9.79545L159.452 10.25C160.603 10.5 161.618 10.8333 162.497 11.25C163.384 11.6667 164.126 12.1629 164.724 12.7386C165.33 13.3144 165.789 13.9773 166.099 14.7273C166.41 15.4773 166.569 16.3182 166.577 17.25C166.569 18.7197 166.198 19.9811 165.463 21.0341C164.728 22.0871 163.671 22.8939 162.293 23.4545C160.921 24.0152 159.266 24.2955 157.327 24.2955C155.38 24.2955 153.683 24.0038 152.236 23.4205C150.789 22.8371 149.664 21.9508 148.861 20.7614C148.058 19.572 147.645 18.0682 147.622 16.25H153.009C153.054 17 153.255 17.625 153.611 18.125C153.967 18.625 154.455 19.0038 155.077 19.2614C155.705 19.5189 156.433 19.6477 157.259 19.6477C158.016 19.6477 158.66 19.5455 159.19 19.3409C159.728 19.1364 160.141 18.8523 160.429 18.4886C160.717 18.125 160.865 17.7083 160.872 17.2386C160.865 16.7992 160.728 16.4242 160.463 16.1136C160.198 15.7955 159.789 15.5227 159.236 15.2955C158.69 15.0606 157.993 14.8447 157.145 14.6477L154.713 14.0795C152.698 13.6174 151.111 12.8712 149.952 11.8409C148.793 10.803 148.217 9.40151 148.224 7.63636C148.217 6.19697 148.603 4.93561 149.384 3.85227C150.164 2.76894 151.243 1.92424 152.622 1.31818C154.001 0.712121 155.573 0.40909 157.338 0.40909C159.141 0.40909 160.705 0.715908 162.031 1.32954C163.365 1.93561 164.399 2.78788 165.134 3.88636C165.868 4.98485 166.243 6.25757 166.259 7.70454H160.872ZM169.418 24V0.727272H185.645V5.29545H175.043V10.0682H184.815V14.6477H175.043V19.4318H185.645V24H169.418Z" fill="#57D9EB"/>
</g>
<defs>
<filter id="filter0_d_1_12" x="0.139204" y="0.409088" width="189.506" height="31.9091" filterUnits="userSpaceOnUse" color-interpolation-filters="sRGB">
<feFlood flood-opacity="0" result="BackgroundImageFix"/>
<feColorMatrix in="SourceAlpha" type="matrix" values="0 0 0 0 0 0 0 0 0 0 0 0 0 0 0 0 0 0 127 0" result="hardAlpha"/>
<feOffset dy="4"/>
<feGaussianBlur stdDeviation="2"/>
<feComposite in2="hardAlpha" operator="out"/>
<feColorMatrix type="matrix" values="0 0 0 0 0 0 0 0 0 0 0 0 0 0 0 0 0 0 0.25 0"/>
<feBlend mode="normal" in2="BackgroundImageFix" result="effect1_dropShadow_1_12"/>
<feBlend mode="normal" in="SourceGraphic" in2="effect1_dropShadow_1_12" result="shape"/>
</filter>
</defs>
</svg>
